<?xml version="1.0" encoding="utf-8"?>
<!-- Generator: Adobe Illustrator 16.0.0, SVG Export Plug-In . SVG Version: 6.00 Build 0)  -->
<!DOCTYPE svg PUBLIC "-//W3C//DTD SVG 1.1//EN" "http://www.w3.org/Graphics/SVG/1.1/DTD/svg11.dtd">
<svg version="1.1" id="Layer_1" xmlns="http://www.w3.org/2000/svg" xmlns:xlink="http://www.w3.org/1999/xlink" x="0px" y="0px"
	 width="32px" height="32px" viewBox="0 0 32 32" enable-background="new 0 0 32 32" xml:space="preserve">
<path fill="#C49C48" d="M31.684,25.635c-2.392-3.369-9.728-13.791-9.728-13.791c-0.177-0.25-0.452-0.412-0.757-0.443
	c-0.307-0.029-0.607,0.071-0.831,0.28l-1.923,1.799l-4.51-8.372c-0.183-0.338-0.533-0.551-0.918-0.556
	c-0.377-0.017-0.741,0.198-0.932,0.531L0.141,25.861c-0.188,0.328-0.187,0.731,0.001,1.059c0.19,0.327,0.54,0.528,0.917,0.528
	h29.862c0.007-0.001,0.015-0.001,0.021,0c0.586,0,1.06-0.474,1.06-1.058C32,26.094,31.842,25.857,31.684,25.635z M18.891,15.964
	l2.036-1.907l4.048,5.74l-3.434-3.578c-0.057-0.057-0.133-0.09-0.213-0.092c-0.079,0-0.156,0.031-0.213,0.088l-2.45,2.446
	c-0.085,0.085-0.213,0.11-0.324,0.063c-0.112-0.045-0.185-0.154-0.183-0.275l0.009-2.225C18.432,16.225,18.691,16.148,18.891,15.964
	z M12.973,7.787l2.626,4.873l-1.972,1.739c-0.061,0.055-0.143,0.081-0.223,0.074c-0.082-0.007-0.157-0.048-0.207-0.112l-1.264-1.604
	c-0.06-0.076-0.153-0.118-0.249-0.113c-0.097,0.005-0.186,0.058-0.237,0.139L9.536,15.83c-0.06,0.095-0.167,0.148-0.279,0.138
	c-0.112-0.01-0.209-0.083-0.25-0.187l-0.256-0.649L12.973,7.787z"/>
</svg>
