<?xml version="1.0" encoding="utf-8"?>
<!-- Generator: Adobe Illustrator 16.0.0, SVG Export Plug-In . SVG Version: 6.00 Build 0)  -->
<!DOCTYPE svg PUBLIC "-//W3C//DTD SVG 1.1//EN" "http://www.w3.org/Graphics/SVG/1.1/DTD/svg11.dtd">
<svg version="1.1" id="Layer_1" xmlns="http://www.w3.org/2000/svg" xmlns:xlink="http://www.w3.org/1999/xlink" x="0px" y="0px"
	 width="32px" height="32px" viewBox="0 0 32 32" enable-background="new 0 0 32 32" xml:space="preserve">
<g>
	<g>
		<path fill="#333333" d="M3.071,11.179c0.405,0.286,1.625,1.134,3.661,2.544s3.595,2.497,4.679,3.258
			c0.119,0.084,0.372,0.266,0.759,0.545c0.387,0.28,0.708,0.507,0.964,0.679c0.256,0.173,0.565,0.366,0.929,0.58
			c0.363,0.215,0.705,0.375,1.027,0.482c0.321,0.107,0.619,0.16,0.893,0.16H16h0.018c0.274,0,0.571-0.053,0.893-0.16
			c0.322-0.107,0.664-0.269,1.027-0.482s0.673-0.407,0.929-0.58c0.256-0.172,0.577-0.398,0.964-0.679
			c0.387-0.279,0.641-0.461,0.76-0.545c1.095-0.762,3.881-2.696,8.356-5.803c0.869-0.607,1.595-1.339,2.179-2.196
			C31.709,8.125,32,7.226,32,6.286c0-0.786-0.283-1.458-0.849-2.018s-1.235-0.839-2.009-0.839H2.857
			c-0.917,0-1.622,0.31-2.116,0.928C0.247,4.976,0,5.75,0,6.679c0,0.75,0.328,1.563,0.982,2.438
			C1.637,9.991,2.333,10.679,3.071,11.179z"/>
		<path fill="#333333" d="M30.214,13.089c-3.904,2.643-6.868,4.696-8.893,6.161c-0.679,0.5-1.229,0.89-1.651,1.17
			c-0.423,0.279-0.985,0.565-1.688,0.856c-0.703,0.292-1.357,0.438-1.964,0.438H16h-0.018c-0.607,0-1.262-0.146-1.964-0.438
			c-0.703-0.291-1.265-0.577-1.688-0.856c-0.423-0.28-0.973-0.67-1.652-1.17c-1.607-1.179-4.565-3.232-8.875-6.161
			c-0.679-0.452-1.28-0.97-1.804-1.554v14.178c0,0.786,0.28,1.458,0.839,2.018c0.56,0.561,1.232,0.84,2.018,0.84h26.285
			c0.786,0,1.459-0.279,2.018-0.84C31.721,27.172,32,26.5,32,25.714V11.536C31.488,12.107,30.893,12.625,30.214,13.089z"/>
	</g>
</g>
</svg>
