<?xml version="1.0" encoding="utf-8"?>
<!-- Generator: Adobe Illustrator 16.0.0, SVG Export Plug-In . SVG Version: 6.00 Build 0)  -->
<!DOCTYPE svg PUBLIC "-//W3C//DTD SVG 1.1//EN" "http://www.w3.org/Graphics/SVG/1.1/DTD/svg11.dtd">
<svg version="1.1" id="Layer_1" xmlns="http://www.w3.org/2000/svg" xmlns:xlink="http://www.w3.org/1999/xlink" x="0px" y="0px"
	 width="32px" height="32px" viewBox="0 0 32 32" enable-background="new 0 0 32 32" xml:space="preserve">
<g>
	<path id="Facebook__x28_alt_x29_" fill="#333333" d="M32,5.333C32,2.531,29.471,0,26.666,0H5.333C2.53,0,0,2.531,0,5.333v21.333
		C0,29.469,2.53,32,5.333,32H16V19.911h-3.911v-5.333H16V12.5c0-3.583,2.691-6.811,6-6.811h4.311v5.333H22
		c-0.473,0-1.021,0.572-1.021,1.431v2.125h5.332v5.333h-5.332V32h5.688C29.471,32,32,29.469,32,26.666V5.333z"/>
</g>
</svg>
