<?xml version="1.0" encoding="utf-8"?>
<!-- Generator: Adobe Illustrator 16.0.0, SVG Export Plug-In . SVG Version: 6.00 Build 0)  -->
<!DOCTYPE svg PUBLIC "-//W3C//DTD SVG 1.1//EN" "http://www.w3.org/Graphics/SVG/1.1/DTD/svg11.dtd">
<svg version="1.1" id="Layer_1" xmlns="http://www.w3.org/2000/svg" xmlns:xlink="http://www.w3.org/1999/xlink" x="0px" y="0px"
	 width="32px" height="32px" viewBox="0 0 32 32" enable-background="new 0 0 32 32" xml:space="preserve">
<g>
	<path fill="#333333" d="M23.169,0H8.831C3.961,0,0,3.962,0,8.831V23.17C0,28.039,3.961,32,8.831,32h14.338
		C28.039,32,32,28.039,32,23.17V8.831C32,3.962,28.039,0,23.169,0z M29.161,23.17c0,3.304-2.688,5.991-5.992,5.991H8.831
		c-3.304,0-5.991-2.688-5.991-5.991V8.831c0-3.304,2.688-5.991,5.991-5.991h14.338c3.304,0,5.991,2.688,5.991,5.991L29.161,23.17
		L29.161,23.17z"/>
	<path fill="#333333" d="M16,7.755c-4.547,0-8.246,3.699-8.246,8.246c0,4.546,3.699,8.245,8.246,8.245s8.246-3.699,8.246-8.245
		C24.246,11.454,20.547,7.755,16,7.755z M16,21.406c-2.981,0-5.406-2.425-5.406-5.405c0-2.981,2.425-5.407,5.406-5.407
		c2.981,0,5.406,2.426,5.406,5.407C21.406,18.981,18.98,21.406,16,21.406z"/>
	<path fill="#333333" d="M24.592,5.348c-0.547,0-1.085,0.222-1.471,0.609C22.732,6.343,22.51,6.881,22.51,7.43
		c0,0.547,0.223,1.085,0.611,1.473c0.386,0.386,0.924,0.609,1.471,0.609c0.549,0,1.084-0.224,1.473-0.609
		c0.388-0.388,0.609-0.926,0.609-1.473c0-0.549-0.222-1.087-0.609-1.473C25.678,5.569,25.141,5.348,24.592,5.348z"/>
</g>
</svg>
