<?xml version="1.0" encoding="utf-8"?>
<!-- Generator: Adobe Illustrator 16.0.0, SVG Export Plug-In . SVG Version: 6.00 Build 0)  -->
<!DOCTYPE svg PUBLIC "-//W3C//DTD SVG 1.1//EN" "http://www.w3.org/Graphics/SVG/1.1/DTD/svg11.dtd">
<svg version="1.1" id="Layer_1" xmlns="http://www.w3.org/2000/svg" xmlns:xlink="http://www.w3.org/1999/xlink" x="0px" y="0px"
	 width="32px" height="32px" viewBox="0 0 32 32" enable-background="new 0 0 32 32" xml:space="preserve">
<g>
	<g>
		<path fill="#C49C48" d="M1.179,8.036C0.393,8.821,0,9.762,0,10.857v14.856c0,1.096,0.393,2.036,1.179,2.821
			c0.785,0.786,1.726,1.18,2.821,1.18h1.143V6.856H4C2.904,6.856,1.964,7.25,1.179,8.036z"/>
		<path fill="#C49C48" d="M22.857,4c0-0.477-0.168-0.881-0.5-1.215c-0.334-0.333-0.738-0.499-1.215-0.499H10.857
			c-0.476,0-0.881,0.166-1.214,0.499C9.31,3.119,9.143,3.523,9.143,4v2.856H6.857v22.857h18.286V6.856h-2.285V4L22.857,4z
			 M20.57,6.856h-9.142V4.571h9.142V6.856z"/>
		<path fill="#C49C48" d="M30.82,8.036c-0.785-0.786-1.725-1.18-2.82-1.18h-1.143v22.857H28c1.096,0,2.035-0.393,2.82-1.179
			c0.787-0.786,1.18-1.726,1.18-2.82V10.857C32,9.762,31.607,8.821,30.82,8.036z"/>
	</g>
</g>
</svg>
