<?xml version="1.0" encoding="utf-8"?>
<!-- Generator: Adobe Illustrator 16.0.0, SVG Export Plug-In . SVG Version: 6.00 Build 0)  -->
<!DOCTYPE svg PUBLIC "-//W3C//DTD SVG 1.1//EN" "http://www.w3.org/Graphics/SVG/1.1/DTD/svg11.dtd">
<svg version="1.1" id="Layer_1" xmlns="http://www.w3.org/2000/svg" xmlns:xlink="http://www.w3.org/1999/xlink" x="0px" y="0px"
	 width="32px" height="32px" viewBox="0 0 32 32" enable-background="new 0 0 32 32" xml:space="preserve">
<g>
	<path fill="#C49C48" d="M26.8,16.791c-0.146-0.166-0.269-0.348-0.37-0.539c-0.049,5.146-4.25,9.316-9.408,9.316
		c-5.188,0-9.41-4.221-9.41-9.408c0-5.189,4.221-9.41,9.41-9.41c4.465,0,8.211,3.124,9.172,7.3l0.853-6.334l0.021-0.143
		c-2.428-2.834-6.03-4.633-10.045-4.633c-3.132,0-6.013,1.095-8.28,2.922v0.137V6.12v2.684V8.91c0,1.792-0.929,3.429-2.398,4.363
		v10.488v0.181c2.406,3.293,6.296,5.438,10.679,5.438c4.604,0,8.666-2.367,11.033-5.947v-0.192V17.62
		C27.575,17.464,27.141,17.18,26.8,16.791z"/>
	<path fill="#C49C48" d="M17.021,8.349c-4.308,0-7.812,3.504-7.812,7.812c0,4.307,3.504,7.812,7.812,7.812
		c4.307,0,7.811-3.505,7.811-7.812C24.832,11.853,21.328,8.349,17.021,8.349z"/>
	<path fill="#C49C48" d="M31.965,1.543c0-0.681-0.553-1.232-1.232-1.232c-0.616,0-1.139,0.457-1.221,1.068l-1.801,13.384
		c-0.048,0.353,0.059,0.708,0.293,0.976c0.234,0.268,0.572,0.422,0.928,0.422h0.723v14.356c0,0.646,0.525,1.172,1.174,1.172
		S32,31.164,32,30.518L31.965,1.543z"/>
	<path fill="#C49C48" d="M7.143,1.804c0-0.442-0.358-0.8-0.799-0.8c-0.442,0-0.8,0.357-0.8,0.8v4.424H4.371V1.804
		c0-0.442-0.358-0.8-0.8-0.8c-0.441,0-0.799,0.357-0.799,0.8v4.424H1.599V1.804c0-0.442-0.358-0.8-0.799-0.8
		c-0.442,0-0.8,0.357-0.8,0.8v7.213c0,1.559,1.004,2.887,2.398,3.373v18.127c0,0.646,0.525,1.172,1.173,1.172
		s1.173-0.524,1.173-1.172V12.39c1.395-0.486,2.398-1.814,2.398-3.373L7.143,1.804L7.143,1.804z"/>
</g>
</svg>
