<?xml version="1.0" encoding="utf-8"?>
<!-- Generator: Adobe Illustrator 16.0.0, SVG Export Plug-In . SVG Version: 6.00 Build 0)  -->
<!DOCTYPE svg PUBLIC "-//W3C//DTD SVG 1.1//EN" "http://www.w3.org/Graphics/SVG/1.1/DTD/svg11.dtd">
<svg version="1.1" id="Layer_1" xmlns="http://www.w3.org/2000/svg" xmlns:xlink="http://www.w3.org/1999/xlink" x="0px" y="0px"
	 width="32px" height="32px" viewBox="0 0 32 32" enable-background="new 0 0 32 32" xml:space="preserve">
<g>
	<g>
		<path fill="#FFFFFF" d="M31.984,25.248c0.066,0.52-0.09,0.971-0.477,1.355l-4.505,4.471c-0.203,0.227-0.469,0.418-0.796,0.576
			c-0.328,0.158-0.648,0.26-0.965,0.305c-0.022,0-0.092,0.006-0.204,0.018s-0.261,0.02-0.438,0.02c-0.431,0-1.123-0.074-2.084-0.223
			c-0.959-0.146-2.135-0.508-3.522-1.084c-1.39-0.576-2.964-1.438-4.726-2.592c-1.762-1.152-3.636-2.732-5.624-4.742
			c-1.581-1.559-2.891-3.049-3.93-4.473c-1.039-1.422-1.875-2.738-2.507-3.946S1.1,12.629,0.783,11.647
			c-0.316-0.982-0.531-1.829-0.644-2.541c-0.113-0.711-0.158-1.27-0.135-1.677C0.028,7.022,0.04,6.797,0.04,6.752
			c0.045-0.316,0.147-0.639,0.305-0.966C0.502,5.459,0.694,5.193,0.92,4.99l4.505-4.506C5.742,0.168,6.104,0.01,6.51,0.01
			c0.294,0,0.553,0.085,0.779,0.255c0.226,0.169,0.418,0.378,0.576,0.626l3.625,6.877c0.203,0.361,0.26,0.757,0.169,1.186
			c-0.09,0.43-0.282,0.791-0.576,1.084l-1.66,1.66c-0.045,0.045-0.085,0.119-0.119,0.221c-0.034,0.102-0.051,0.186-0.051,0.254
			c0.09,0.474,0.293,1.017,0.61,1.626c0.271,0.542,0.688,1.202,1.253,1.981c0.564,0.778,1.366,1.678,2.405,2.692
			c1.016,1.039,1.919,1.848,2.71,2.422c0.791,0.576,1.451,1,1.981,1.271s0.938,0.434,1.22,0.49l0.424,0.085
			c0.045,0,0.119-0.017,0.222-0.052c0.103-0.033,0.175-0.072,0.22-0.117l1.934-1.965c0.404-0.361,0.881-0.543,1.422-0.543
			c0.385,0,0.688,0.066,0.916,0.203H24.6l6.539,3.86C31.611,24.424,31.895,24.797,31.984,25.248z"/>
	</g>
</g>
</svg>
