<?xml version="1.0" encoding="utf-8"?>
<!-- Generator: Adobe Illustrator 16.0.0, SVG Export Plug-In . SVG Version: 6.00 Build 0)  -->
<!DOCTYPE svg PUBLIC "-//W3C//DTD SVG 1.1//EN" "http://www.w3.org/Graphics/SVG/1.1/DTD/svg11.dtd">
<svg version="1.1" id="Layer_1" xmlns="http://www.w3.org/2000/svg" xmlns:xlink="http://www.w3.org/1999/xlink" x="0px" y="0px"
	 width="32px" height="32px" viewBox="0 0 32 32" enable-background="new 0 0 32 32" xml:space="preserve">
<g>
	<g>
		<path fill="#C49C48" d="M5.203,15.021c-0.667,0.667-0.667,1.752,0,2.427c0.667,0.667,1.752,0.667,2.426,0
			c4.617-4.618,12.131-4.618,16.749,0c0.333,0.333,0.771,0.504,1.21,0.504c0.438,0,0.876-0.171,1.209-0.504
			c0.668-0.669,0.668-1.753,0-2.427C20.846,9.063,11.154,9.063,5.203,15.021z"/>
		<path fill="#C49C48" d="M9.833,19.65c-0.667,0.668-0.667,1.754,0,2.427c0.667,0.667,1.752,0.667,2.426,0
			c2.06-2.066,5.421-2.066,7.481,0c0.334,0.333,0.771,0.504,1.211,0.504c0.438,0,0.876-0.171,1.209-0.504
			c0.668-0.667,0.668-1.753,0-2.42C18.768,16.25,13.233,16.25,9.833,19.65z"/>
		<circle fill="#C49C48" cx="16" cy="25.812" r="2.282"/>
		<path fill="#C49C48" d="M31.5,10.312c-8.548-8.542-22.452-8.542-31,0c-0.667,0.667-0.667,1.752,0,2.426
			c0.667,0.667,1.752,0.667,2.426,0c7.207-7.214,18.939-7.214,26.153,0c0.334,0.333,0.771,0.503,1.21,0.503s0.876-0.17,1.21-0.503
			C32.167,12.071,32.167,10.985,31.5,10.312z"/>
	</g>
</g>
</svg>
